G04*
G04 #@! TF.GenerationSoftware,Altium Limited,Altium Designer,24.1.2 (44)*
G04*
G04 Layer_Color=8421504*
%FSLAX44Y44*%
%MOMM*%
G71*
G04*
G04 #@! TF.SameCoordinates,8F0F3E8E-BFDB-4773-B97D-B54856440852*
G04*
G04*
G04 #@! TF.FilePolarity,Positive*
G04*
G01*
G75*
%ADD15R,3.0000X1.0000*%
%ADD16R,1.6000X1.3000*%
%ADD17R,1.5500X1.3500*%
%ADD18R,1.3500X1.5500*%
%ADD19R,1.8544X0.6121*%
G04:AMPARAMS|DCode=20|XSize=1.8544mm|YSize=0.6121mm|CornerRadius=0.3061mm|HoleSize=0mm|Usage=FLASHONLY|Rotation=0.000|XOffset=0mm|YOffset=0mm|HoleType=Round|Shape=RoundedRectangle|*
%AMROUNDEDRECTD20*
21,1,1.8544,0.0000,0,0,0.0*
21,1,1.2423,0.6121,0,0,0.0*
1,1,0.6121,0.6211,0.0000*
1,1,0.6121,-0.6211,0.0000*
1,1,0.6121,-0.6211,0.0000*
1,1,0.6121,0.6211,0.0000*
%
%ADD20ROUNDEDRECTD20*%
%ADD21R,0.8000X0.8000*%
D15*
X869040Y591820D02*
D03*
X914040Y617220D02*
D03*
X869040Y642620D02*
D03*
Y687070D02*
D03*
X914040Y712470D02*
D03*
X869040Y737870D02*
D03*
X866500Y783590D02*
D03*
X911500Y808990D02*
D03*
X866500Y834390D02*
D03*
D16*
X1145540Y851330D02*
D03*
Y873330D02*
D03*
X1074420Y872060D02*
D03*
Y850060D02*
D03*
X1021080Y870790D02*
D03*
Y848790D02*
D03*
X864870Y917780D02*
D03*
Y895780D02*
D03*
D17*
X1090930Y744380D02*
D03*
Y764380D02*
D03*
D18*
X1064420Y695960D02*
D03*
X1084420D02*
D03*
X1022350D02*
D03*
X1002350D02*
D03*
D19*
X1028627Y753720D02*
D03*
D20*
Y744220D02*
D03*
Y734720D02*
D03*
X1051633D02*
D03*
Y744220D02*
D03*
Y753720D02*
D03*
D21*
X1136650Y663060D02*
D03*
Y678060D02*
D03*
Y794900D02*
D03*
Y779900D02*
D03*
M02*
