G04*
G04 #@! TF.GenerationSoftware,Altium Limited,Altium Designer,24.1.2 (44)*
G04*
G04 Layer_Color=8388736*
%FSLAX44Y44*%
%MOMM*%
G71*
G04*
G04 #@! TF.SameCoordinates,8F0F3E8E-BFDB-4773-B97D-B54856440852*
G04*
G04*
G04 #@! TF.FilePolarity,Negative*
G04*
G01*
G75*
%ADD19R,1.8544X0.6121*%
G04:AMPARAMS|DCode=20|XSize=1.8544mm|YSize=0.6121mm|CornerRadius=0.3061mm|HoleSize=0mm|Usage=FLASHONLY|Rotation=0.000|XOffset=0mm|YOffset=0mm|HoleType=Round|Shape=RoundedRectangle|*
%AMROUNDEDRECTD20*
21,1,1.8544,0.0000,0,0,0.0*
21,1,1.2423,0.6121,0,0,0.0*
1,1,0.6121,0.6211,0.0000*
1,1,0.6121,-0.6211,0.0000*
1,1,0.6121,-0.6211,0.0000*
1,1,0.6121,0.6211,0.0000*
%
%ADD20ROUNDEDRECTD20*%
%ADD21R,0.8000X0.8000*%
%ADD22R,3.2032X1.2032*%
%ADD23R,1.8032X1.5032*%
%ADD24R,1.7532X1.5532*%
%ADD25R,1.5532X1.7532*%
%ADD26C,2.6032*%
G04:AMPARAMS|DCode=27|XSize=1.8032mm|YSize=1.8032mm|CornerRadius=0.5016mm|HoleSize=0mm|Usage=FLASHONLY|Rotation=270.000|XOffset=0mm|YOffset=0mm|HoleType=Round|Shape=RoundedRectangle|*
%AMROUNDEDRECTD27*
21,1,1.8032,0.8000,0,0,270.0*
21,1,0.8000,1.8032,0,0,270.0*
1,1,1.0032,-0.4000,-0.4000*
1,1,1.0032,-0.4000,0.4000*
1,1,1.0032,0.4000,0.4000*
1,1,1.0032,0.4000,-0.4000*
%
%ADD27ROUNDEDRECTD27*%
%ADD28C,1.8032*%
%ADD29C,2.1532*%
G04:AMPARAMS|DCode=30|XSize=2.1532mm|YSize=2.1532mm|CornerRadius=0.5891mm|HoleSize=0mm|Usage=FLASHONLY|Rotation=180.000|XOffset=0mm|YOffset=0mm|HoleType=Round|Shape=RoundedRectangle|*
%AMROUNDEDRECTD30*
21,1,2.1532,0.9750,0,0,180.0*
21,1,0.9750,2.1532,0,0,180.0*
1,1,1.1782,-0.4875,0.4875*
1,1,1.1782,0.4875,0.4875*
1,1,1.1782,0.4875,-0.4875*
1,1,1.1782,-0.4875,-0.4875*
%
%ADD30ROUNDEDRECTD30*%
G04:AMPARAMS|DCode=31|XSize=2.1532mm|YSize=2.1532mm|CornerRadius=0.5891mm|HoleSize=0mm|Usage=FLASHONLY|Rotation=270.000|XOffset=0mm|YOffset=0mm|HoleType=Round|Shape=RoundedRectangle|*
%AMROUNDEDRECTD31*
21,1,2.1532,0.9750,0,0,270.0*
21,1,0.9750,2.1532,0,0,270.0*
1,1,1.1782,-0.4875,-0.4875*
1,1,1.1782,-0.4875,0.4875*
1,1,1.1782,0.4875,0.4875*
1,1,1.1782,0.4875,-0.4875*
%
%ADD31ROUNDEDRECTD31*%
D19*
X1028627Y753720D02*
D03*
D20*
Y744220D02*
D03*
Y734720D02*
D03*
X1051633D02*
D03*
Y744220D02*
D03*
Y753720D02*
D03*
D21*
X1136650Y663060D02*
D03*
Y678060D02*
D03*
Y794900D02*
D03*
Y779900D02*
D03*
D22*
X869040Y591820D02*
D03*
X914040Y617220D02*
D03*
X869040Y642620D02*
D03*
Y687070D02*
D03*
X914040Y712470D02*
D03*
X869040Y737870D02*
D03*
X866500Y783590D02*
D03*
X911500Y808990D02*
D03*
X866500Y834390D02*
D03*
D23*
X1145540Y851330D02*
D03*
Y873330D02*
D03*
X1074420Y872060D02*
D03*
Y850060D02*
D03*
X1021080Y870790D02*
D03*
Y848790D02*
D03*
X864870Y917780D02*
D03*
Y895780D02*
D03*
D24*
X1090930Y744380D02*
D03*
Y764380D02*
D03*
D25*
X1064420Y695960D02*
D03*
X1084420D02*
D03*
X1022350D02*
D03*
X1002350D02*
D03*
D26*
X1170940Y985520D02*
D03*
Y594360D02*
D03*
X731520D02*
D03*
Y985520D02*
D03*
D27*
X775970Y718820D02*
D03*
X1176020Y716280D02*
D03*
D28*
X775970Y693420D02*
D03*
X1176020Y741680D02*
D03*
D29*
X994810Y965240D02*
D03*
X753070Y822090D02*
D03*
D30*
X1044810Y965240D02*
D03*
D31*
X753070Y872090D02*
D03*
M02*
