M48
;Layer_Color=9474304
;FILE_FORMAT=4:4
METRIC,LZ
;TYPE=PLATED
T01F00S00C0.3000
T02F00S00C1.1000
T03F00S00C1.3000
;TYPE=NON_PLATED
T04F00S00C2.4000
%
T01
X00947674Y0061722
X00980186Y0069596
X01005078Y0074422
X01017524Y00772668
X01091692Y00786638
X0109093Y00724154
X011049Y0069596
X0112002Y0067806
X00996618Y0087079
X01044883Y00920061
X00800862Y00872236
T02
X0117602Y0071628
Y0074168
X0077597Y0071882
Y0069342
T03
X0075307Y0082209
Y0087209
X0099481Y0096524
X0104481
T04
X0117094Y0059436
X0073152
Y0098552
X0117094
M30
